<?xml version="1.0" encoding="utf-8"?>
<!-- Generator: Adobe Illustrator 28.0.0, SVG Export Plug-In . SVG Version: 6.00 Build 0)  -->
<svg version="1.1" id="Слой_1" xmlns="http://www.w3.org/2000/svg" xmlns:xlink="http://www.w3.org/1999/xlink" x="0px" y="0px"
	 viewBox="0 0 1000 689.6551514" enable-background="new 0 0 1000 689.6551514" xml:space="preserve">
<g>
	<path fill="#FF0033" d="M499.4758606,689.6551514c0,0,313.2655334,0,390.9689636-20.6896362
		c43.751709-11.7241821,76.6552124-45.5172119,88.2034302-87.241333C1000,505.1723938,1000,344.1379089,1000,344.1379089
		s0-159.9999695-21.3517456-235.8620453c-11.5482178-42.7586212-44.4517212-75.8620758-88.2034302-87.2413788
		C812.741394,0,499.4758606,0,499.4758606,0S186.909317,0,109.5555191,21.034483
		c-43.0520706,11.3793087-76.6538696,44.4827576-88.9044876,87.2413788C0,184.1379395,0,344.1379089,0,344.1379089
		s0,161.0344849,20.6510334,237.5862732c12.2506199,41.7241211,45.852417,75.5171509,88.9044876,87.241333
		C186.909317,689.6551514,499.4758606,689.6551514,499.4758606,689.6551514z"/>
	<path fill="#FFFFFF" d="M655.1724243,344.8275757l-258.620697-146.551712V491.379303L655.1724243,344.8275757z"/>
</g>
</svg>
